<?xml version="1.0" standalone="no"?>
<!DOCTYPE svg PUBLIC "-//W3C//DTD SVG 20010904//EN"
 "http://www.w3.org/TR/2001/REC-SVG-20010904/DTD/svg10.dtd">
<svg version="1.0" xmlns="http://www.w3.org/2000/svg"
 width="700.000000pt" height="700.000000pt" viewBox="0 0 700.000000 700.000000"
 preserveAspectRatio="xMidYMid meet">
<metadata>
Created by potrace 1.14, written by Peter Selinger 2001-2017
</metadata>
<g transform="translate(0.000000,700.000000) scale(0.100000,-0.100000)"
fill="#000000" stroke="none">
<path d="M3850 6475 l-525 -525 1313 0 1312 0 0 -1312 0 -1313 525 525 525
525 0 1312 0 1313 -1313 0 -1312 0 -525 -525z"/>
<path d="M2368 6215 c-2 -1 -50 -5 -108 -9 -130 -8 -150 -11 -278 -42 -467
-114 -862 -447 -1061 -894 -45 -99 -90 -247 -107 -345 -3 -16 -8 -41 -11 -55
-3 -14 -7 -106 -9 -205 -2 -141 2 -203 16 -287 87 -501 401 -925 853 -1150 70
-35 287 -119 302 -117 3 0 18 -2 33 -5 85 -19 126 -25 214 -35 117 -12 322 -5
418 14 176 37 274 68 395 125 47 22 85 42 85 45 0 2 -9 30 -21 62 -35 96 -99
275 -120 331 -10 28 -28 77 -39 107 -48 133 -62 171 -70 190 -4 11 -13 34 -18
50 -26 76 -75 212 -83 230 -4 11 -27 72 -49 135 -23 63 -55 151 -72 195 -17
44 -31 85 -33 90 -1 6 -5 17 -8 25 -4 8 -38 103 -77 210 l-70 195 347 347
c191 191 350 344 354 340 6 -6 115 -296 123 -327 3 -11 12 -34 31 -85 7 -19
25 -66 38 -105 41 -113 107 -297 122 -335 7 -19 25 -66 39 -105 51 -145 108
-301 121 -335 13 -34 129 -356 156 -432 7 -20 16 -35 20 -32 7 4 58 131 63
157 1 6 10 36 19 66 9 30 20 75 23 100 3 25 8 49 10 52 8 15 18 150 18 249 -1
189 -16 296 -65 460 -184 620 -745 1072 -1384 1116 -44 3 -88 7 -97 8 -9 2
-18 3 -20 1z"/>
<path d="M4440 3924 c-122 -16 -174 -28 -287 -65 -85 -27 -263 -103 -263 -112
0 -6 46 -139 58 -167 6 -14 22 -56 35 -95 68 -190 90 -252 102 -280 7 -16 22
-57 33 -90 12 -33 36 -103 55 -155 19 -52 81 -221 136 -375 56 -154 108 -296
116 -315 7 -19 25 -66 38 -105 14 -38 39 -108 56 -155 l32 -84 -350 -350 -350
-350 -12 30 c-6 16 -15 38 -20 49 -10 25 -55 155 -75 215 -8 25 -19 54 -24 65
-5 11 -28 72 -50 135 -23 63 -50 138 -60 165 -27 72 -137 375 -172 475 -17 47
-34 94 -39 105 -5 11 -18 47 -29 80 -12 33 -25 69 -30 80 -5 11 -18 47 -29 80
-11 33 -40 114 -65 179 l-44 119 -15 -29 c-42 -83 -99 -296 -114 -434 -9 -73
-9 -258 -1 -345 27 -287 152 -586 345 -825 60 -74 194 -208 243 -243 272 -193
468 -277 756 -324 27 -4 135 -8 239 -7 155 1 209 5 292 22 449 96 822 363
1049 752 96 163 148 302 190 505 20 97 27 412 11 510 -18 111 -55 262 -77 310
-5 11 -28 64 -51 118 -130 304 -415 601 -724 755 -279 139 -608 196 -905 156z"/>
<path d="M523 3148 l-523 -523 0 -1313 0 -1312 1313 0 1312 0 525 525 525 525
-1312 0 -1313 0 -2 1310 -3 1310 -522 -522z"/>
</g>
</svg>
