<?xml version="1.0" encoding="UTF-8" standalone="no"?>
<!DOCTYPE svg PUBLIC "-//W3C//DTD SVG 1.1//EN" "http://www.w3.org/Graphics/SVG/1.1/DTD/svg11.dtd">
<svg width="100%" height="100%" viewBox="0 0 400 400" version="1.1" xmlns="http://www.w3.org/2000/svg" xmlns:xlink="http://www.w3.org/1999/xlink" xml:space="preserve" xmlns:serif="http://www.serif.com/" style="fill-rule:evenodd;clip-rule:evenodd;stroke-linejoin:round;stroke-miterlimit:2;">
    <rect id="Artboard1" x="0" y="0" width="400" height="400" style="fill:none;"/>
    <clipPath id="_clip1">
        <rect id="Artboard11" serif:id="Artboard1" x="0" y="0" width="400" height="400"/>
    </clipPath>
    <g clip-path="url(#_clip1)">
        <g>
            <path d="M60,190L-0,250L0,400L60,405L60,190Z" style="fill:rgb(0,163,68);"/>
            <path d="M210,340L50,340L50,400L150,400L210,340Z" style="fill:rgb(0,163,68);"/>
            <path d="M177.869,214.139C165.123,221.064 150.518,225 135,225C85.328,225 45,184.672 45,135C45,85.328 85.328,45 135,45C184.672,45 225,85.328 225,135C225,148.168 222.166,160.68 217.075,171.956L180,70L140,110L177.869,214.139Z" style="fill:rgb(0,163,68);"/>
        </g>
        <g>
            <g transform="matrix(1,0,0,1.11111,0,0)">
                <path d="M400,0L250,0L190,54L400,54L400,0Z"/>
            </g>
            <path d="M400,50L340,50L340,210L400,150L400,50Z"/>
            <path d="M222.131,185.861C234.877,178.936 249.482,175 265,175C314.672,175 355,215.328 355,265C355,314.672 314.672,355 265,355C215.328,355 175,314.672 175,265C175,251.832 177.834,239.32 182.925,228.044L220,329.999L260,290L222.131,185.861Z"/>
        </g>
    </g>
</svg>
